<?xml version="1.0" encoding="utf-8"?>
<svg xmlns="http://www.w3.org/2000/svg" viewBox="0 0 500 500" width="500px" height="500px" xmlns:bx="https://boxy-svg.com">
  <defs>
    <linearGradient gradientUnits="userSpaceOnUse" x1="250.346" y1="0.818" x2="250.346" y2="499.732" id="gradient-0" gradientTransform="matrix(0.947105, -0.331126, 0.347697, 0.991965, 4.321766, 84.631993)">
      <stop offset="0" style="stop-color: rgb(135, 47, 162);"/>
      <stop offset="1" style="stop-color: rgb(97, 19, 84);"/>
    </linearGradient>
    <linearGradient gradientUnits="userSpaceOnUse" x1="246.914" y1="239.36" x2="246.914" y2="407.12" id="gradient-1" gradientTransform="matrix(1.002047, 0, 0, 0.998607, -0.154886, 0.333478)">
      <stop offset="0" style="stop-color: rgb(133, 33, 148);"/>
      <stop offset="1" style="stop-color: rgb(103, 27, 103);"/>
    </linearGradient>
    <style bx:fonts="Aldrich">@import url(https://fonts.googleapis.com/css2?family=Aldrich%3Aital%2Cwght%400%2C400&amp;display=swap);</style>
  </defs>
  <rect width="500" height="500" style="fill: url(&quot;#gradient-0&quot;); stroke-width: 2.482;" id="object-0" transform="matrix(1, 0, 0, 1, 0, 1.1368683772161603e-13)"/>
  <path fill="#FFFFFF" d="M 100.176 70.55 C 118.586 70.703 139.024 91.103 149.118 100 L 247.143 176.041 L 345.425 100 C 356.653 90.408 376.871 71.629 390.555 71.793 C 417.867 72.12 440.008 93.987 440.008 121.369 L 440.008 381.656 C 440.008 409.037 417.869 431.234 390.555 431.234 L 103.734 431.234 C 76.424 431.234 54.281 409.037 54.281 381.656 L 54.281 121.369 C 54.281 93.987 72.867 70.323 100.176 70.55 Z" style="stroke-width: 2.482;" id="object-1" transform="matrix(1, 0, 0, 1, 0, 1.1368683772161603e-13)"/>
  <rect x="75.659" y="239.36" width="343.211" height="167.526" rx="25.479" ry="25.479" style="fill: url(&quot;#gradient-1&quot;);"/>
  <text style="fill: rgb(255, 255, 255); font-family: Aldrich; font-size: 105px; font-weight: 700; text-transform: capitalize; white-space: pre;" x="196.23" y="356.167">15</text>
</svg>