<?xml version="1.0" encoding="utf-8"?>
<svg xmlns="http://www.w3.org/2000/svg" viewBox="0 0 500 500" width="500px" height="500px">
  <defs>
    <linearGradient gradientUnits="userSpaceOnUse" x1="250.346" y1="0.818" x2="250.346" y2="499.732" id="gradient-0" gradientTransform="matrix(0.947105, -0.331126, 0.347697, 0.991965, 4.321766, 84.631993)">
      <stop offset="0" style="stop-color: rgb(162, 47, 62);"/>
      <stop offset="1" style="stop-color: rgb(113, 28, 51);"/>
    </linearGradient>
    <linearGradient gradientUnits="userSpaceOnUse" x1="204.1" y1="220.704" x2="204.1" y2="376.413" id="gradient-2" gradientTransform="matrix(1.336021, 0, 0, 1.336021, -26.279572, -94.865677)">
      <stop offset="0" style="stop-color: rgb(168, 45, 75);"/>
      <stop offset="1" style="stop-color: rgb(112, 13, 13);"/>
    </linearGradient>
  </defs>
  <rect width="500" height="500" style="fill: url(&quot;#gradient-0&quot;); stroke-width: 2.482;" id="object-0" transform="matrix(1, 0, 0, 1, 0, 5.684341886080802e-14)"/>
  <path fill="#FFFFFF" d="M 100.176 70.55 C 118.586 70.703 139.024 91.103 149.118 100 L 247.143 176.041 L 345.425 100 C 356.653 90.408 376.871 71.629 390.555 71.793 C 417.867 72.12 440.008 93.987 440.008 121.369 L 440.008 381.656 C 440.008 409.037 417.869 431.234 390.555 431.234 L 103.734 431.234 C 76.424 431.234 54.281 409.037 54.281 381.656 L 54.281 121.369 C 54.281 93.987 72.867 70.323 100.176 70.55 Z" style="stroke-width: 2.482;" id="object-1" transform="matrix(1, 0, 0, 1, 0, 5.684341886080802e-14)"/>
  <path d="M 209.673 288.737 C 199.492 278.556 194.395 266.309 194.395 252.007 C 194.395 237.705 199.492 225.456 209.673 215.276 C 219.867 205.095 232.102 200 246.404 200 C 260.706 200 272.953 205.095 283.134 215.276 C 293.328 225.456 298.411 237.705 298.411 252.007 C 298.411 266.309 293.328 278.556 283.134 288.737 C 272.953 298.917 260.706 304.014 246.404 304.014 C 232.102 304.014 219.867 298.917 209.673 288.737 Z M 142.388 408.03 L 142.388 371.625 C 142.388 364.253 144.286 357.479 148.082 351.303 C 151.866 345.126 156.911 340.419 163.191 337.17 C 176.634 330.447 190.287 325.416 204.147 322.048 C 218.02 318.694 232.102 317.016 246.404 317.016 C 260.706 317.016 274.8 318.694 288.66 322.048 C 302.533 325.416 316.184 330.447 329.615 337.17 C 335.909 340.419 340.941 345.126 344.738 351.303 C 348.52 357.479 350.419 364.253 350.419 371.625 L 350.419 408.03 L 142.388 408.03 Z M 168.391 382.026 L 324.416 382.026 L 324.416 371.625 C 324.416 369.245 323.817 367.074 322.633 365.124 C 321.438 363.173 319.864 361.653 317.914 360.573 C 306.212 354.721 294.407 350.327 282.483 347.401 C 270.574 344.477 258.547 343.021 246.404 343.021 C 234.273 343.021 222.246 344.477 210.323 347.401 C 198.413 350.327 186.594 354.721 174.892 360.573 C 172.943 361.653 171.369 363.173 170.185 365.124 C 168.99 367.074 168.391 369.245 168.391 371.625 L 168.391 382.026 Z M 264.776 270.365 C 269.859 265.282 272.407 259.157 272.407 252.007 C 272.407 244.855 269.859 238.732 264.776 233.635 C 259.679 228.552 253.554 226.002 246.404 226.002 C 239.252 226.002 233.128 228.552 228.044 233.635 C 222.947 238.732 220.4 244.855 220.4 252.007 C 220.4 259.157 222.947 265.282 228.044 270.365 C 233.128 275.462 239.252 278.011 246.404 278.011 C 253.554 278.011 259.679 275.462 264.776 270.365 Z M 246.404 252.007 Z M 246.404 382.026 Z" style="stroke-width: 0.025; fill: url(&quot;#gradient-2&quot;);"/>
</svg>